<svg width="107" height="53" viewBox="0 0 107 53" fill="none" xmlns="http://www.w3.org/2000/svg">
<path d="M9.84696 40.1639H9.91765L13.1474 28.4953C13.5117 27.1896 14.2729 25.8785 15.6866 26.2021C17.5516 26.6355 17.5516 27.3706 17.5516 28.0015C17.5516 28.424 17.4048 28.9561 17.1492 29.6254L11.8697 47.0379C10.5973 50.5599 9.14556 52.3977 5.80706 52.3977C3.44729 52.3977 2.46858 51.273 2.46858 50.0332C2.46858 48.6617 4.04539 47.9705 5.45908 47.9705H6.0028C6.69335 47.9705 7.54156 47.6029 7.94392 46.012L0.652533 30.9859C0.217552 29.757 6.10352e-05 29.192 6.10352e-05 28.594C6.10352e-05 27.1841 0.20124 26.8495 1.73999 26.2625C2.81113 25.851 4.13782 27.036 4.46406 28.2045L9.84696 40.1639Z" fill="black"/>
<path d="M51.8928 28.6221C51.8928 26.9928 52.5942 26.126 54.1003 26.126C55.5412 26.126 56.3133 26.9928 56.3133 28.6221V29.456H56.3785C57.1832 27.2122 59.157 26.126 61.5331 26.126C65.6164 26.126 69.1996 29.3462 69.1996 36.1818C69.1996 41.2453 66.8235 45.9852 61.669 45.9852C59.4288 45.9852 57.7487 45.0087 56.8516 43.3081H56.7863V50.363C56.7863 52.1021 55.813 53.0073 54.3395 53.0073C52.866 53.0073 51.8928 52.1021 51.8928 50.363V28.6221ZM62.6042 29.7687C59.6518 29.7687 58.5371 32.8244 58.5371 36.1653C58.5371 39.1826 59.5104 42.7265 62.6042 42.6827C65.8339 42.6827 66.6332 38.9028 66.6332 36.1653C66.6332 32.7037 65.312 29.8455 62.6042 29.7687Z" fill="black"/>
<path d="M41.3926 22.3405C41.3926 20.574 42.355 19.6523 43.8176 19.6523C45.2802 19.6523 46.2426 20.574 46.2426 22.3405V44.4051C46.2426 46.1715 45.2802 47.0877 43.8176 47.0877C42.355 47.0877 41.3926 46.1661 41.3926 44.4051V22.3405Z" fill="black"/>
<path d="M24.533 37.8003C24.533 40.664 26.0935 42.7487 28.7414 42.7487C32.1724 42.7487 32.1724 40.0715 34.0156 40.0715C35.1085 40.0715 35.886 41.1907 35.886 42.1946C35.886 45.4697 31.4873 46.9948 28.7414 46.9948C22.3798 46.9948 19.9766 41.86 19.9766 37.131C19.9766 30.8057 23.19 26.5596 28.5838 26.5596C33.8253 26.5596 36.8212 30.9868 36.8212 35.4523C36.8212 37.3121 36.3536 37.7948 34.8257 37.7948H24.533V37.8003ZM32.0364 34.8708C31.77 32.0949 30.0953 30.0651 27.9204 30.0651C25.4791 30.0651 24.0056 31.9303 23.4673 34.8708H32.0364Z" fill="black"/>
<path d="M106.733 9.60211C106.554 10.0355 106.309 10.4085 105.994 10.7212C105.678 11.0339 105.314 11.2808 104.89 11.4618C104.471 11.6429 104.02 11.7361 103.536 11.7361C103.052 11.7361 102.601 11.6429 102.182 11.4618C101.764 11.2808 101.394 11.0339 101.078 10.7212C100.763 10.4085 100.513 10.0355 100.328 9.60211C100.143 9.16872 100.051 8.7024 100.051 8.20319C100.051 7.71494 100.143 7.2541 100.328 6.8262C100.513 6.39829 100.763 6.03073 101.078 5.71803C101.394 5.40533 101.758 5.15846 102.182 4.97742C102.601 4.79639 103.052 4.70312 103.536 4.70312C104.02 4.70312 104.471 4.79639 104.89 4.97742C105.309 5.15846 105.678 5.40533 105.994 5.71803C106.309 6.03073 106.554 6.39829 106.733 6.8262C106.913 7.2541 107 7.70944 107 8.20319C107 8.7024 106.913 9.16872 106.733 9.60211ZM106.222 7.01272C106.07 6.63967 105.863 6.31052 105.608 6.03622C105.352 5.76192 105.048 5.54248 104.694 5.38339C104.341 5.21881 103.96 5.142 103.552 5.142C103.145 5.142 102.764 5.22429 102.411 5.38339C102.057 5.54248 101.753 5.76192 101.492 6.03622C101.231 6.31052 101.024 6.63967 100.872 7.01272C100.72 7.39125 100.643 7.78624 100.643 8.19769C100.643 8.6256 100.72 9.02607 100.872 9.39913C101.024 9.77218 101.231 10.1013 101.492 10.3811C101.753 10.6609 102.063 10.8858 102.421 11.0449C102.78 11.204 103.161 11.2863 103.569 11.2863C103.966 11.2863 104.341 11.204 104.694 11.0449C105.048 10.8858 105.347 10.6664 105.608 10.3866C105.863 10.1123 106.07 9.78863 106.222 9.4101C106.374 9.03705 106.45 8.63657 106.45 8.20866C106.45 7.79173 106.374 7.39125 106.222 7.01272ZM104.531 10.2494C104.428 10.1123 104.324 9.78314 104.232 9.25101C104.178 8.9822 104.08 8.79018 103.938 8.68046C103.797 8.57074 103.59 8.51588 103.319 8.51588H102.846V10.2494H102.34V6.32697C102.519 6.30503 102.682 6.28857 102.835 6.26663C102.987 6.24468 103.161 6.23371 103.362 6.23371C103.634 6.23371 103.868 6.26114 104.063 6.316C104.259 6.37635 104.411 6.44218 104.526 6.52995C104.765 6.70551 104.885 6.97432 104.885 7.32542C104.885 7.59423 104.808 7.80819 104.656 7.96728C104.504 8.12089 104.324 8.23061 104.112 8.29644V8.32936C104.471 8.38971 104.694 8.70789 104.787 9.28391C104.841 9.58564 104.885 9.80508 104.928 9.94772C104.972 10.0904 105.01 10.1891 105.053 10.2549H104.531V10.2494ZM104.129 6.88106C103.976 6.72196 103.699 6.63967 103.302 6.63967C103.199 6.63967 103.107 6.63967 103.036 6.65065C102.96 6.65613 102.9 6.66162 102.846 6.67259V8.14283H103.335C103.607 8.14283 103.846 8.08797 104.053 7.97825C104.259 7.86853 104.357 7.67652 104.357 7.40771C104.357 7.2157 104.281 7.04015 104.129 6.88106Z" fill="black"/>
<path d="M88.8506 24.6708C88.2036 25.3291 88.7527 26.525 88.7527 26.525L93.6191 34.7266C93.6191 34.7266 94.4184 35.8073 95.1089 35.8073C95.8049 35.8073 96.49 35.2313 96.49 35.2313L100.339 29.6795C100.339 29.6795 100.725 28.9773 100.736 28.3683C100.753 27.4961 99.4478 27.2547 99.4478 27.2547L90.335 24.3032C90.335 24.3032 89.4433 24.0673 88.8506 24.6708Z" fill="black"/>
<path d="M88.3879 20.5323C88.8555 21.3278 90.1387 21.0974 90.1387 21.0974L99.2298 18.4147C99.2298 18.4147 100.469 17.9045 100.643 17.2298C100.817 16.5495 100.437 15.7321 100.437 15.7321L96.0925 10.5698C96.0925 10.5698 95.7173 9.91697 94.9344 9.85114C94.0753 9.77982 93.5424 10.8276 93.5424 10.8276L88.4042 18.9798C88.4151 18.9908 87.9583 19.8027 88.3879 20.5323Z" fill="black"/>
<path d="M84.0918 17.3576C85.163 17.0942 85.3315 15.5252 85.3315 15.5252L85.2608 2.46862C85.2608 2.46862 85.0977 0.855748 84.38 0.422356C83.2545 -0.268877 82.9228 0.0931976 82.5966 0.142571L75.0496 2.97333C75.0496 2.97333 74.3102 3.2202 73.9241 3.84012C73.375 4.72336 74.4842 6.01256 74.4842 6.01256L82.3301 16.798C82.3301 16.7925 83.1077 17.6044 84.0918 17.3576Z" fill="black"/>
<path d="M82.2279 22.642C82.2551 21.6326 81.0317 21.0291 81.0317 21.0291L72.9193 16.8927C72.9193 16.8927 71.7176 16.3935 71.1359 16.7391C70.69 17.0079 70.2931 17.4906 70.255 17.9131L69.7276 24.4743C69.7276 24.4743 69.646 25.6099 69.9397 26.1311C70.3529 26.8662 71.7122 26.356 71.7122 26.356L81.1839 24.2439C81.5482 23.997 82.1953 23.9751 82.2279 22.642Z" fill="black"/>
<path d="M84.5884 26.1858C83.7728 25.7634 82.8049 26.6357 82.8049 26.6357L76.4651 33.6796C76.4651 33.6796 75.6713 34.7549 75.8779 35.4187C76.0682 36.0386 76.3835 36.3458 76.8239 36.5653L83.191 38.5951C83.191 38.5951 83.9631 38.7542 84.5503 38.5841C85.3822 38.3427 85.23 37.0316 85.23 37.0316L85.3713 27.497C85.3605 27.4915 85.3278 26.5698 84.5884 26.1858Z" fill="black"/>
</svg>
