<svg width="112" height="25" viewBox="0 0 112 25" fill="none" xmlns="http://www.w3.org/2000/svg">
<path d="M6.10352e-05 12.3129V24.6161H2.44006H4.88006V19.6161V14.5866L6.75006 14.6456L8.62006 14.7047L11.4901 19.6456L14.3401 24.5866L17.1501 24.6161C18.6701 24.6161 19.9301 24.5767 19.9301 24.5177C19.9301 24.4586 18.6301 22.1751 17.0601 19.4488C15.4701 16.7224 14.1501 14.4488 14.1101 14.3799C14.0701 14.3011 14.5501 14.0059 15.2001 13.6811C16.6901 12.9527 18.1901 11.5846 18.8301 10.3444C19.7201 8.58262 19.7701 5.48223 18.9101 3.83853C18.0201 2.13578 15.9401 0.698765 13.6501 0.21648C13.0001 0.0786858 10.1301 -0.0098896 6.29006 -0.0098896H6.10352e-05V12.3129ZM12.9501 4.61609C14.0701 5.11806 14.6401 6.01373 14.6401 7.31295C14.6401 8.51373 14.1301 9.43892 13.1801 9.95074C12.6101 10.246 11.9001 10.3248 8.71006 10.374L4.89006 10.4527V7.32279V4.19286H8.50006C11.6101 4.21255 12.2201 4.27161 12.9501 4.61609Z" fill="black"/>
<path d="M77.65 12.5197V24.626H79.99H82.33V12.5197V0.413372H79.99H77.65V12.5197Z" fill="black"/>
<path d="M103.5 11.7517C103.56 21.0824 103.56 21.1217 104.03 22.0568C104.56 23.1198 105.82 24.3205 106.84 24.7339C107.28 24.9111 108.3 25.0095 109.76 25.0095H112V23.0115V21.0135H110.7C109.71 21.0135 109.3 20.915 108.87 20.5902L108.34 20.1867V15.482V10.8068H110.17H112V8.90716V7.00755H110.17H108.34V4.70441V2.40126H105.88H103.44L103.5 11.7517Z" fill="black"/>
<path d="M26.1799 6.98819C24.5299 7.52953 23.4099 8.21851 22.2199 9.44882C20.9999 10.748 20.4299 11.752 20.0199 13.4547C18.9299 18.0217 20.9299 22.3917 24.9999 24.2913C26.2599 24.8917 26.4199 24.9213 28.9599 24.9213C31.2299 24.9213 31.7699 24.8622 32.7799 24.4488C34.1999 23.8878 36.0999 22.2441 36.8499 20.8858L37.3799 19.9114L35.7499 18.9764C34.8599 18.4547 34.0499 18.0413 33.9599 18.0413C33.8799 18.0413 33.5299 18.4449 33.1699 18.9173C32.3599 20.0787 31.2599 20.7776 29.9199 21.0433C28.7299 21.2697 27.8599 21.1417 26.8299 20.6201C25.6099 20.0197 24.3899 18.4449 24.3899 17.4409C24.3899 17.0374 24.4699 17.0374 31.0999 17.0374H37.8099V15.3642C37.8099 11.5256 36.0099 8.69095 32.6299 7.22442C31.1799 6.55512 27.8199 6.4567 26.1799 6.98819ZM31.6699 10.8957C32.1999 11.2598 32.7099 11.8307 33.0299 12.5L33.5599 13.5236L29.0499 13.5827C26.5699 13.6122 24.4999 13.5827 24.4399 13.5236C24.1599 13.248 25.6199 11.4567 26.6399 10.8563C27.6799 10.2264 27.8599 10.1968 29.3099 10.2559C30.5899 10.315 30.9599 10.3937 31.6699 10.8957Z" fill="black"/>
<path d="M63.0401 6.91931C60.4201 7.64766 58.0001 9.54725 57.0101 11.6831C56.3001 13.248 55.9901 15.6496 56.3001 17.4606C57.0901 22.1949 60.6401 25.0295 65.8501 25.0295C68.9001 25.0295 70.9301 24.3012 72.9001 22.5689C74.0401 21.5453 74.8101 20.2658 75.3101 18.5433C75.7401 17.0768 75.6401 13.8091 75.1301 12.4114C74.2901 10.1477 72.0801 8.0512 69.5801 7.17521C68.0301 6.61419 64.6101 6.48624 63.0401 6.91931ZM67.9901 11.3878C70.8401 12.628 71.7801 16.3681 69.8601 18.8484C68.5001 20.6103 65.6301 21.2697 63.7001 20.2756C62.6501 19.7146 61.5001 18.4744 61.1801 17.5099C60.7701 16.3091 61.0101 14.1732 61.6501 13.2382C63.0901 11.0925 65.5901 10.374 67.9901 11.3878Z" fill="black"/>
<path d="M37.6701 7.29334C37.7301 7.43114 39.3601 11.3977 41.2901 16.0926L44.8101 24.6359L47.0201 24.5768L49.2301 24.5178L52.6601 16.2107C54.5501 11.6437 56.1501 7.70673 56.2201 7.44098L56.3501 6.97839L53.8701 7.03744L51.3701 7.09649L49.2101 12.7363C48.0301 15.8367 47.0001 18.317 46.9401 18.2382C46.8601 18.1595 45.8601 15.6004 44.7001 12.5394L42.5901 6.99807H40.0701C38.0401 7.01775 37.5801 7.07681 37.6701 7.29334Z" fill="black"/>
<path d="M84.7603 12.4804C84.7603 15.5611 84.8603 18.4548 84.9903 19.1241C85.4303 21.565 86.7603 23.2481 89.0203 24.3012C90.3203 24.9016 90.4703 24.9312 93.1103 24.9312C95.6903 24.9312 95.9303 24.8918 97.0703 24.3701C99.3303 23.3367 100.77 21.506 101.21 19.1339C101.34 18.4745 101.44 15.5709 101.44 12.4902V7.02761H99.1303H96.7903L96.7303 12.4705C96.6703 17.6969 96.6503 17.9725 96.2003 18.7697C95.5503 19.9705 94.4503 20.4922 92.8103 20.3937C91.3503 20.315 90.5103 19.8229 89.9403 18.691C89.6003 18.0119 89.5603 17.3327 89.5003 12.4607L89.4403 7.01777H87.1003H84.7903V12.4804H84.7603Z" fill="black"/>
</svg>
