<svg width="150" height="19" viewBox="0 0 150 19" fill="none" xmlns="http://www.w3.org/2000/svg">
<g clip-path="url(#clip0)">
<path d="M1.99394 1.46672H0.664306C0.498102 0.313218 0.581204 0.06604 4.48701 0.06604H9.97176C17.7833 0.06604 21.1075 3.52653 21.1075 9.29402C21.1075 14.8143 17.9496 18.522 10.2211 18.522H0.0825904C-0.000511909 18.1925 -0.000511909 17.7805 0.0825904 17.4509C2.99117 17.2861 3.48978 17.1213 3.48978 15.3087V2.62021C3.48978 1.6315 3.15737 1.46672 1.99394 1.46672ZM17.5341 9.7884C17.5341 4.68003 14.8748 1.6315 9.63931 1.6315H6.81387V15.0615C6.81387 16.7093 7.39559 16.9565 9.88865 16.9565C14.5424 17.039 17.5341 15.5559 17.5341 9.7884Z" fill="#1D1D1B"/>
<path d="M34.1545 0.230957C34.2375 0.807705 34.4037 1.30207 34.8193 2.20838L41.0519 16.2976C41.3843 16.9567 41.6336 17.2039 43.0463 17.2039H43.6281C43.7942 17.9454 43.6281 18.4397 42.9633 18.4397H34.2375C34.1545 18.1926 34.1545 17.7806 34.2375 17.3686C37.146 17.2862 37.4785 17.0391 37.146 16.3799L35.4841 12.3426H28.5034L27.4232 15.2264C26.8415 16.7919 26.8415 17.2039 28.2542 17.2039H30.581C30.7472 17.9454 30.581 18.4397 29.9162 18.4397H22.1877C22.1046 18.1926 22.1046 17.7806 22.1877 17.3686C24.2652 17.1214 24.5146 16.9567 25.2625 15.2264L30.581 2.70274C31.4951 0.64292 31.8276 0.230957 33.0741 0.230957H34.1545ZM34.8193 10.942L31.9107 4.02102L29.0851 10.942H34.8193Z" fill="#1D1D1B"/>
<path d="M54.3489 0.560791C54.432 0.807969 54.432 1.30232 54.3489 1.6319C52.022 1.79668 51.6897 2.29104 51.6897 3.44453V16.133C51.6897 17.0394 51.9389 17.2865 53.1024 17.2865H54.5983C54.7644 18.028 54.6814 18.5224 53.9334 18.5224H45.7063C45.6232 18.2752 45.6232 17.8632 45.7063 17.4513C47.8669 17.1217 48.3655 16.8745 48.3655 15.7211V2.95018C48.3655 1.96147 48.1163 1.79668 46.8697 1.79668H45.5401C45.3738 1.13754 45.5401 0.560791 46.7035 0.560791H54.3489Z" fill="#1D1D1B"/>
<path d="M85.4294 0.560791C85.5125 0.890362 85.5125 1.21993 85.4294 1.6319C82.9364 1.79668 82.7701 2.20865 82.8533 3.03257L84.1829 16.133C84.266 16.9569 84.6815 17.0394 86.759 17.3689C86.8421 18.1104 86.759 18.6048 86.0111 18.6048H76.4544C76.3713 18.2752 76.3713 17.9457 76.4544 17.5337L77.9502 17.4512C80.1939 17.2865 80.6095 17.0394 80.4433 15.7211L79.1968 3.93889L72.7148 17.4512C72.2161 18.44 72.05 18.6048 71.3852 18.6048L63.9059 4.02129L63.0749 16.0506C62.9918 17.1217 62.9918 17.3689 65.8172 17.3689H67.3131C67.4793 18.1104 67.3962 18.6048 66.6483 18.6048H57.7563C57.6732 18.2752 57.6732 17.9457 57.7563 17.5337C60.748 17.3689 60.9973 16.8745 61.0805 15.7211L62.1607 3.11497C62.2438 2.29104 62.0776 1.96147 59.4184 1.87907C59.2522 1.30232 59.4184 0.643183 60.5818 0.643183H66.0666L72.8809 13.4964L79.1136 0.643183H85.4294V0.560791Z" fill="#1D1D1B"/>
<path d="M100.303 0.560791C100.386 0.807969 100.386 1.30232 100.303 1.6319C97.4775 1.79668 96.8963 2.04386 96.8963 3.77411V15.6386C96.8963 16.5449 97.3945 16.7922 98.1426 16.7922H99.8878C101.882 16.7922 102.131 16.6274 103.294 14.2379L104.043 12.5901C104.791 12.5901 105.206 12.9197 104.957 13.7436C104.376 15.3091 103.877 16.8745 103.544 18.5224H90.3309C90.2478 18.1929 90.2478 17.8632 90.3309 17.4513C92.9901 17.2865 93.5719 16.9569 93.5719 15.2267V2.95018C93.5719 1.96147 93.2395 1.79668 92.0761 1.79668H90.7465C90.5802 1.13754 90.7465 0.560791 91.9098 0.560791H100.303Z" fill="#1D1D1B"/>
<path d="M122.244 0.56066C122.327 1.79655 122.494 3.03244 122.66 4.18594C122.826 5.00987 122.494 5.50422 121.58 5.42183L121.33 4.18594C120.832 2.53808 120.333 2.12612 118.837 2.12612H114.516V8.96471H117.341C118.172 8.96471 118.338 8.71753 118.421 7.976L118.587 6.57533H118.92C119.418 6.57533 119.751 6.74011 119.667 7.56403C119.584 9.21189 119.584 11.1069 119.667 12.8372C119.418 12.9195 119.003 13.002 118.754 12.8372C118.421 10.7774 118.089 10.5302 117.341 10.5302H114.516V15.2265C114.516 16.2153 114.765 16.6273 116.593 16.6273H118.92C120.915 16.6273 121.164 16.4625 122.327 14.073L123.075 12.4252C123.823 12.4252 124.238 12.7547 123.989 13.5787C123.407 15.1442 122.909 16.7096 122.577 18.3575H107.701C107.618 18.0279 107.618 17.6983 107.701 17.2863C110.527 17.1216 111.108 16.9568 111.108 15.1442V2.78526C111.108 1.79655 110.859 1.63176 109.613 1.63176H108.283C108.2 0.972623 108.283 0.395874 109.447 0.395874H122.244V0.56066Z" fill="#1D1D1B"/>
<path d="M128.892 1.79655H127.562C127.396 1.13741 127.562 0.56066 128.643 0.478267C129.972 0.395874 131.551 0.395874 135.374 0.395874C140.527 0.395874 143.435 2.86766 143.435 6.49293C143.435 8.71754 142.022 10.5302 139.779 11.5189C139.779 11.5189 141.773 13.3315 142.853 14.1555C146.427 16.9568 147.59 17.204 149.917 17.204C150.166 18.1103 149.501 18.8518 146.593 18.8518C144.1 18.8518 142.438 18.2751 140.444 16.6272C139.529 15.8857 138.615 14.8146 137.867 13.5787C137.202 12.3428 137.119 12.2604 135.457 12.2604H133.796V16.2153C133.796 16.9568 134.045 17.2863 135.457 17.2863H136.87C136.953 18.0279 136.87 18.5223 136.122 18.5223H127.645C127.562 18.1927 127.562 17.8631 127.645 17.4511C129.972 17.2863 130.554 17.0392 130.554 15.3913V3.03244C130.388 1.96134 130.056 1.79655 128.892 1.79655ZM135.042 10.7774C137.701 10.7774 139.862 10.3654 139.862 6.74011C139.862 3.11484 137.701 1.96134 134.626 1.96134H133.796V10.7774H135.042Z" fill="#1D1D1B"/>
</g>
<defs>
<clipPath id="clip0">
<rect width="150" height="19" fill="white" transform="translate(-0.000366211)"/>
</clipPath>
</defs>
</svg>
