<svg width="47" height="28" viewBox="0 0 47 28" fill="none" xmlns="http://www.w3.org/2000/svg">
<g filter="url(#filter0_d)">
<mask id="path-1-inside-1" fill="white">
<path fill-rule="evenodd" clip-rule="evenodd" d="M35.0225 3.91497C34.5732 1.59919 34.0276 0.308591 33.5056 0.327077L33.667 5.01228C33.992 5.00077 34.3318 5.80444 34.6115 7.2465C34.8913 8.68856 35.0882 10.6509 35.1588 12.7018C35.1647 12.8733 35.1697 13.0443 35.1737 13.2144C35.1242 13.2279 35.0749 13.2421 35.0257 13.2568L35.1833 13.7304C35.2053 15.403 35.1377 16.97 34.9881 18.1825C34.8082 19.6408 34.5245 20.4666 34.1995 20.4781L34.3608 25.1633C34.8828 25.1448 35.3383 23.8187 35.6272 21.4768C35.8652 19.5476 35.974 17.0593 35.9416 14.4011C36.9855 14.1915 38.0954 14.2816 39.1784 14.6677C40.4342 15.1154 41.6043 15.9434 42.5576 17.0591C43.511 18.1747 44.2099 19.5339 44.5763 20.9845C44.9426 22.4351 44.9618 23.9198 44.6317 25.2722L45.7271 25.78C46.1117 24.2042 46.0893 22.4743 45.6625 20.7841C45.2357 19.0939 44.4213 17.5102 43.3105 16.2102C42.1996 14.9103 40.8363 13.9455 39.373 13.4239C38.2185 13.0122 37.0377 12.8894 35.9136 13.0585L35.9072 12.8522C37.326 12.678 38.769 12.1613 40.0956 11.3505C41.5023 10.4908 42.724 9.33346 43.6275 8.00467C44.531 6.67588 45.0816 5.22668 45.2193 3.81514C45.3569 2.40359 45.0763 1.08391 44.4081 0L43.456 0.65181C44.0388 1.59726 44.2836 2.74839 44.1636 3.97962C44.0435 5.21087 43.5632 6.47495 42.7751 7.63401C41.987 8.79308 40.9213 9.80261 39.6943 10.5525C38.4839 11.2923 37.1623 11.7514 35.8699 11.8814C35.736 8.87893 35.4355 6.0439 35.0225 3.91497ZM16.2296 20.9207C16.214 20.9564 16.1983 20.9919 16.1825 21.0272L16.1143 20.8749C14.9532 20.4221 13.6395 20.1786 12.2904 20.1786C10.9586 20.1786 9.66136 20.4159 8.51136 20.8575L8.43537 21.0272C8.41769 20.9877 8.40014 20.948 8.38272 20.908C7.76601 21.1554 7.19372 21.4623 6.68374 21.8235C5.19677 22.8768 4.3614 24.3053 4.3614 25.7948L1 25.7948C1 23.6738 2.18952 21.6397 4.30688 20.14C5.26178 19.4636 6.37011 18.9209 7.57393 18.5289C7.2713 17.3673 7.05481 16.096 6.93615 14.7639C6.72477 12.391 6.83326 9.93142 7.24788 7.6962C7.6625 5.46099 8.36464 3.55052 9.2655 2.20638C10.1664 0.862247 11.2255 0.144817 12.3089 0.144817C13.3924 0.144817 14.4515 0.862247 15.3524 2.20638C16.2533 3.55052 16.9554 5.46099 17.37 7.6962C17.7846 9.93142 17.8931 12.391 17.6818 14.7639C17.5627 16.1003 17.3452 17.3755 17.041 18.5401C18.2317 18.9312 19.328 19.47 20.2739 20.14C22.3912 21.6397 23.5808 23.6738 23.5808 25.7948H20.2194C20.2194 24.3053 19.384 22.8768 17.897 21.8235C17.3958 21.4685 16.8343 21.1659 16.2296 20.9207ZM15.3254 18.092C15.7593 16.9501 16.0572 15.5772 16.1887 14.1007C16.3414 12.3872 16.263 10.6111 15.9636 8.99704C15.6642 7.38296 15.1572 6.00338 14.5067 5.03276C13.8561 4.06214 13.0913 3.54407 12.3089 3.54407C11.5266 3.54407 10.7618 4.06214 10.1112 5.03276C9.4607 6.00338 8.95368 7.38296 8.65428 8.99704C8.35487 10.6111 8.27653 12.3872 8.42917 14.1007C8.56043 15.5743 8.85744 16.9447 9.2899 18.0852C10.259 17.896 11.2675 17.7977 12.2904 17.7977C13.3254 17.7977 14.3458 17.8983 15.3254 18.092ZM30.2329 1.07957C30.2488 0.730989 30.1378 0.31943 29.7901 0.25594C29.5702 0.215797 29.3496 0.300834 29.133 0.511143C28.8452 0.790539 28.5695 1.28627 28.3163 1.97693C28.2533 1.80412 28.1887 1.64306 28.1226 1.49427C27.7551 0.666156 27.0249 1.05254 27.0178 1.95655L27.0132 2.54303C27.009 3.08476 27.2991 3.66932 27.5647 4.20469L27.5653 4.20581C27.6013 4.27838 27.6368 4.35004 27.6711 4.42057C27.5462 5.06361 27.4352 5.76657 27.3401 6.5194C27.1464 8.05196 27.0228 9.75758 26.9771 11.5274C26.9314 13.2973 26.9647 15.0925 27.0748 16.7985C27.1848 18.5045 27.3693 20.0838 27.6164 21.4357C27.6314 21.5177 27.6467 21.5989 27.6621 21.679C27.5506 21.8914 27.4351 22.0562 27.3168 22.1707C27.2444 22.2408 27.1446 22.3161 27.0386 22.3961C26.7738 22.5959 26.4701 22.8251 26.4583 23.0746L26.3644 25.0622C26.348 25.4107 26.4584 25.8224 26.806 25.8864C27.0258 25.9269 27.2466 25.8422 27.4635 25.6322C27.758 25.3471 28.0402 24.8361 28.299 24.122C28.3675 24.3121 28.4379 24.4883 28.51 24.65C28.8787 25.4776 29.6084 25.0901 29.6141 24.1861L29.6178 23.5996C29.6212 23.0579 29.3303 22.4738 29.0638 21.9388L29.0638 21.9388C29.0211 21.853 28.979 21.7685 28.9389 21.6856C29.0616 21.0534 29.1711 20.3639 29.2654 19.6265C29.4614 18.0943 29.5875 16.3888 29.6359 14.6191C29.6842 12.8493 29.6536 11.054 29.5461 9.34789C29.4386 7.64173 29.2564 6.06214 29.0113 4.70991C28.9942 4.61514 28.9767 4.52163 28.959 4.42941C29.0643 4.2338 29.1734 4.08067 29.2849 3.97239C29.3571 3.90227 29.4567 3.82685 29.5626 3.74672L29.5627 3.74664L29.5627 3.74663C29.8272 3.54639 30.1306 3.31678 30.142 3.06725L30.2329 1.07957Z"/>
</mask>
<path fill-rule="evenodd" clip-rule="evenodd" d="M35.0225 3.91497C34.5732 1.59919 34.0276 0.308591 33.5056 0.327077L33.667 5.01228C33.992 5.00077 34.3318 5.80444 34.6115 7.2465C34.8913 8.68856 35.0882 10.6509 35.1588 12.7018C35.1647 12.8733 35.1697 13.0443 35.1737 13.2144C35.1242 13.2279 35.0749 13.2421 35.0257 13.2568L35.1833 13.7304C35.2053 15.403 35.1377 16.97 34.9881 18.1825C34.8082 19.6408 34.5245 20.4666 34.1995 20.4781L34.3608 25.1633C34.8828 25.1448 35.3383 23.8187 35.6272 21.4768C35.8652 19.5476 35.974 17.0593 35.9416 14.4011C36.9855 14.1915 38.0954 14.2816 39.1784 14.6677C40.4342 15.1154 41.6043 15.9434 42.5576 17.0591C43.511 18.1747 44.2099 19.5339 44.5763 20.9845C44.9426 22.4351 44.9618 23.9198 44.6317 25.2722L45.7271 25.78C46.1117 24.2042 46.0893 22.4743 45.6625 20.7841C45.2357 19.0939 44.4213 17.5102 43.3105 16.2102C42.1996 14.9103 40.8363 13.9455 39.373 13.4239C38.2185 13.0122 37.0377 12.8894 35.9136 13.0585L35.9072 12.8522C37.326 12.678 38.769 12.1613 40.0956 11.3505C41.5023 10.4908 42.724 9.33346 43.6275 8.00467C44.531 6.67588 45.0816 5.22668 45.2193 3.81514C45.3569 2.40359 45.0763 1.08391 44.4081 0L43.456 0.65181C44.0388 1.59726 44.2836 2.74839 44.1636 3.97962C44.0435 5.21087 43.5632 6.47495 42.7751 7.63401C41.987 8.79308 40.9213 9.80261 39.6943 10.5525C38.4839 11.2923 37.1623 11.7514 35.8699 11.8814C35.736 8.87893 35.4355 6.0439 35.0225 3.91497ZM16.2296 20.9207C16.214 20.9564 16.1983 20.9919 16.1825 21.0272L16.1143 20.8749C14.9532 20.4221 13.6395 20.1786 12.2904 20.1786C10.9586 20.1786 9.66136 20.4159 8.51136 20.8575L8.43537 21.0272C8.41769 20.9877 8.40014 20.948 8.38272 20.908C7.76601 21.1554 7.19372 21.4623 6.68374 21.8235C5.19677 22.8768 4.3614 24.3053 4.3614 25.7948L1 25.7948C1 23.6738 2.18952 21.6397 4.30688 20.14C5.26178 19.4636 6.37011 18.9209 7.57393 18.5289C7.2713 17.3673 7.05481 16.096 6.93615 14.7639C6.72477 12.391 6.83326 9.93142 7.24788 7.6962C7.6625 5.46099 8.36464 3.55052 9.2655 2.20638C10.1664 0.862247 11.2255 0.144817 12.3089 0.144817C13.3924 0.144817 14.4515 0.862247 15.3524 2.20638C16.2533 3.55052 16.9554 5.46099 17.37 7.6962C17.7846 9.93142 17.8931 12.391 17.6818 14.7639C17.5627 16.1003 17.3452 17.3755 17.041 18.5401C18.2317 18.9312 19.328 19.47 20.2739 20.14C22.3912 21.6397 23.5808 23.6738 23.5808 25.7948H20.2194C20.2194 24.3053 19.384 22.8768 17.897 21.8235C17.3958 21.4685 16.8343 21.1659 16.2296 20.9207ZM15.3254 18.092C15.7593 16.9501 16.0572 15.5772 16.1887 14.1007C16.3414 12.3872 16.263 10.6111 15.9636 8.99704C15.6642 7.38296 15.1572 6.00338 14.5067 5.03276C13.8561 4.06214 13.0913 3.54407 12.3089 3.54407C11.5266 3.54407 10.7618 4.06214 10.1112 5.03276C9.4607 6.00338 8.95368 7.38296 8.65428 8.99704C8.35487 10.6111 8.27653 12.3872 8.42917 14.1007C8.56043 15.5743 8.85744 16.9447 9.2899 18.0852C10.259 17.896 11.2675 17.7977 12.2904 17.7977C13.3254 17.7977 14.3458 17.8983 15.3254 18.092ZM30.2329 1.07957C30.2488 0.730989 30.1378 0.31943 29.7901 0.25594C29.5702 0.215797 29.3496 0.300834 29.133 0.511143C28.8452 0.790539 28.5695 1.28627 28.3163 1.97693C28.2533 1.80412 28.1887 1.64306 28.1226 1.49427C27.7551 0.666156 27.0249 1.05254 27.0178 1.95655L27.0132 2.54303C27.009 3.08476 27.2991 3.66932 27.5647 4.20469L27.5653 4.20581C27.6013 4.27838 27.6368 4.35004 27.6711 4.42057C27.5462 5.06361 27.4352 5.76657 27.3401 6.5194C27.1464 8.05196 27.0228 9.75758 26.9771 11.5274C26.9314 13.2973 26.9647 15.0925 27.0748 16.7985C27.1848 18.5045 27.3693 20.0838 27.6164 21.4357C27.6314 21.5177 27.6467 21.5989 27.6621 21.679C27.5506 21.8914 27.4351 22.0562 27.3168 22.1707C27.2444 22.2408 27.1446 22.3161 27.0386 22.3961C26.7738 22.5959 26.4701 22.8251 26.4583 23.0746L26.3644 25.0622C26.348 25.4107 26.4584 25.8224 26.806 25.8864C27.0258 25.9269 27.2466 25.8422 27.4635 25.6322C27.758 25.3471 28.0402 24.8361 28.299 24.122C28.3675 24.3121 28.4379 24.4883 28.51 24.65C28.8787 25.4776 29.6084 25.0901 29.6141 24.1861L29.6178 23.5996C29.6212 23.0579 29.3303 22.4738 29.0638 21.9388L29.0638 21.9388C29.0211 21.853 28.979 21.7685 28.9389 21.6856C29.0616 21.0534 29.1711 20.3639 29.2654 19.6265C29.4614 18.0943 29.5875 16.3888 29.6359 14.6191C29.6842 12.8493 29.6536 11.054 29.5461 9.34789C29.4386 7.64173 29.2564 6.06214 29.0113 4.70991C28.9942 4.61514 28.9767 4.52163 28.959 4.42941C29.0643 4.2338 29.1734 4.08067 29.2849 3.97239C29.3571 3.90227 29.4567 3.82685 29.5626 3.74672L29.5627 3.74664L29.5627 3.74663C29.8272 3.54639 30.1306 3.31678 30.142 3.06725L30.2329 1.07957Z" fill="black"/>
<path d="M33.5056 0.327077L33.4998 0.162332L33.3352 0.16816L33.3409 0.332749L33.5056 0.327077ZM35.0225 3.91497L34.8607 3.94636L34.8607 3.94636L35.0225 3.91497ZM33.667 5.01228L33.5022 5.01795L33.5079 5.18287L33.6728 5.17703L33.667 5.01228ZM34.6115 7.2465L34.7734 7.21511L34.7734 7.21511L34.6115 7.2465ZM35.1588 12.7018L35.3235 12.6961L35.3235 12.6961L35.1588 12.7018ZM35.1737 13.2144L35.2172 13.3735L35.3416 13.3395L35.3385 13.2105L35.1737 13.2144ZM35.0257 13.2568L34.9785 13.0988L34.8157 13.1475L34.8693 13.3088L35.0257 13.2568ZM35.1833 13.7304L35.3481 13.7283L35.3478 13.7027L35.3397 13.6784L35.1833 13.7304ZM34.9881 18.1825L35.1517 18.2026L35.1517 18.2026L34.9881 18.1825ZM34.1995 20.4781L34.1937 20.3133L34.0291 20.3191L34.0348 20.4837L34.1995 20.4781ZM34.3608 25.1633L34.1961 25.1689L34.2018 25.3339L34.3667 25.328L34.3608 25.1633ZM35.6272 21.4768L35.4636 21.4566L35.4636 21.4566L35.6272 21.4768ZM35.9416 14.4011L35.9092 14.2395L35.7751 14.2664L35.7768 14.4031L35.9416 14.4011ZM39.1784 14.6677L39.2338 14.5124L39.2338 14.5124L39.1784 14.6677ZM42.5576 17.0591L42.683 16.952L42.683 16.952L42.5576 17.0591ZM44.5763 20.9845L44.7361 20.9442L44.7361 20.9442L44.5763 20.9845ZM44.6317 25.2722L44.4716 25.2331L44.4394 25.3648L44.5624 25.4218L44.6317 25.2722ZM45.7271 25.78L45.6578 25.9296L45.8397 26.0139L45.8873 25.8191L45.7271 25.78ZM45.6625 20.7841L45.8224 20.7437L45.8224 20.7437L45.6625 20.7841ZM43.3105 16.2102L43.4358 16.1031L43.4358 16.1031L43.3105 16.2102ZM39.373 13.4239L39.3177 13.5791L39.3177 13.5791L39.373 13.4239ZM35.9136 13.0585L35.7488 13.0636L35.7545 13.2491L35.9381 13.2215L35.9136 13.0585ZM35.9072 12.8522L35.8871 12.6886L35.7378 12.7069L35.7424 12.8573L35.9072 12.8522ZM40.0956 11.3505L40.0096 11.2099L40.0096 11.2099L40.0956 11.3505ZM43.6275 8.00467L43.7638 8.09736L43.7638 8.09736L43.6275 8.00467ZM45.2193 3.81514L45.3834 3.83114L45.3834 3.83113L45.2193 3.81514ZM44.4081 0L44.5484 -0.0865113L44.4576 -0.233714L44.3149 -0.136026L44.4081 0ZM43.456 0.65181L43.3628 0.515784L43.2332 0.604555L43.3156 0.738321L43.456 0.65181ZM44.1636 3.97962L43.9995 3.96362L43.9995 3.96362L44.1636 3.97962ZM42.7751 7.63401L42.9114 7.72671L42.9114 7.72671L42.7751 7.63401ZM39.6943 10.5525L39.7803 10.6932L39.7803 10.6932L39.6943 10.5525ZM35.8699 11.8814L35.7052 11.8888L35.713 12.0629L35.8864 12.0455L35.8699 11.8814ZM16.1825 21.0272L16.0321 21.0945L16.1825 21.4305L16.333 21.0946L16.1825 21.0272ZM16.2296 20.9207L16.2916 20.7679L16.1428 20.7076L16.0786 20.8547L16.2296 20.9207ZM16.1143 20.8749L16.2648 20.8075L16.2372 20.7458L16.1742 20.7213L16.1143 20.8749ZM8.51136 20.8575L8.45227 20.7036L8.38873 20.728L8.36091 20.7901L8.51136 20.8575ZM8.43537 21.0272L8.28492 21.0945L8.43537 21.4305L8.58583 21.0945L8.43537 21.0272ZM8.38272 20.908L8.53385 20.8421L8.46991 20.6954L8.32135 20.755L8.38272 20.908ZM6.68374 21.8235L6.77903 21.9581L6.77903 21.9581L6.68374 21.8235ZM4.3614 25.7948L4.3614 25.9596L4.52625 25.9596L4.52625 25.7948L4.3614 25.7948ZM1 25.7948H0.835152V25.9596L1 25.9596L1 25.7948ZM4.30688 20.14L4.40216 20.2745L4.40216 20.2745L4.30688 20.14ZM7.57393 18.5289L7.62498 18.6856L7.7726 18.6375L7.73346 18.4873L7.57393 18.5289ZM6.93615 14.7639L6.77195 14.7785L6.77195 14.7785L6.93615 14.7639ZM7.24788 7.6962L7.40996 7.72627L7.40996 7.72627L7.24788 7.6962ZM9.2655 2.20638L9.12856 2.1146L9.12856 2.1146L9.2655 2.20638ZM15.3524 2.20638L15.4893 2.1146L15.4893 2.1146L15.3524 2.20638ZM17.37 7.6962L17.2079 7.72627L17.2079 7.72627L17.37 7.6962ZM17.6818 14.7639L17.5176 14.7493L17.5176 14.7493L17.6818 14.7639ZM17.041 18.5401L16.8815 18.4984L16.8424 18.6483L16.9896 18.6967L17.041 18.5401ZM20.2739 20.14L20.1786 20.2745L20.1786 20.2745L20.2739 20.14ZM23.5808 25.7948V25.9596H23.7456V25.7948H23.5808ZM20.2194 25.7948H20.0545V25.9596H20.2194V25.7948ZM17.897 21.8235L17.8017 21.9581L17.8017 21.9581L17.897 21.8235ZM16.1887 14.1007L16.0245 14.0861L16.0245 14.0861L16.1887 14.1007ZM15.3254 18.092L15.2935 18.2537L15.4301 18.2807L15.4795 18.1506L15.3254 18.092ZM15.9636 8.99704L16.1257 8.96698L16.1257 8.96698L15.9636 8.99704ZM14.5067 5.03276L14.3697 5.12454L14.3697 5.12454L14.5067 5.03276ZM10.1112 5.03276L9.97429 4.94098L9.97429 4.94098L10.1112 5.03276ZM8.65428 8.99704L8.81636 9.02711L8.81636 9.02711L8.65428 8.99704ZM8.42917 14.1007L8.59337 14.0861L8.59337 14.0861L8.42917 14.1007ZM9.2899 18.0852L9.13576 18.1437L9.18505 18.2737L9.32149 18.247L9.2899 18.0852ZM29.7901 0.25594L29.7605 0.418107L29.7605 0.418107L29.7901 0.25594ZM30.2329 1.07957L30.0682 1.07204L30.0682 1.07204L30.2329 1.07957ZM29.133 0.511143L29.0182 0.392872L29.0181 0.392873L29.133 0.511143ZM28.3163 1.97693L28.1614 2.03341L28.3159 2.45694L28.4711 2.03368L28.3163 1.97693ZM28.1226 1.49427L28.2733 1.4274L28.2733 1.4274L28.1226 1.49427ZM27.0178 1.95655L27.1827 1.95784L27.1827 1.95784L27.0178 1.95655ZM27.0132 2.54303L26.8484 2.54174L26.8484 2.54175L27.0132 2.54303ZM27.5647 4.20469L27.7128 4.13225L27.7124 4.13141L27.5647 4.20469ZM27.5653 4.20581L27.4172 4.27825L27.4176 4.27909L27.5653 4.20581ZM27.6711 4.42057L27.833 4.45201L27.8435 4.39796L27.8194 4.34846L27.6711 4.42057ZM27.3401 6.5194L27.5036 6.54007L27.5036 6.54007L27.3401 6.5194ZM26.9771 11.5274L26.8123 11.5232L26.8123 11.5232L26.9771 11.5274ZM27.0748 16.7985L26.9103 16.8091L26.9103 16.8091L27.0748 16.7985ZM27.6164 21.4357L27.7786 21.406L27.7786 21.406L27.6164 21.4357ZM27.6621 21.679L27.808 21.7557L27.8349 21.7046L27.824 21.6479L27.6621 21.679ZM27.3168 22.1707L27.4314 22.2892L27.4314 22.2892L27.3168 22.1707ZM27.0386 22.3961L26.9393 22.2645L26.9393 22.2645L27.0386 22.3961ZM26.4583 23.0746L26.2937 23.0668L26.2937 23.0668L26.4583 23.0746ZM26.3644 25.0622L26.1998 25.0544L26.1998 25.0544L26.3644 25.0622ZM26.806 25.8864L26.8359 25.7243L26.8358 25.7243L26.806 25.8864ZM27.4635 25.6322L27.5782 25.7506L27.5782 25.7506L27.4635 25.6322ZM28.299 24.122L28.4541 24.0661L28.2994 23.6371L28.144 24.0659L28.299 24.122ZM28.51 24.65L28.3594 24.7171L28.3594 24.7171L28.51 24.65ZM29.6141 24.1861L29.7789 24.1871L29.7789 24.1871L29.6141 24.1861ZM29.6178 23.5996L29.453 23.5986L29.453 23.5986L29.6178 23.5996ZM29.0638 21.9388L29.2114 21.8653L29.2113 21.8651L29.0638 21.9388ZM29.0638 21.9388L28.9163 22.0123L28.9164 22.0125L29.0638 21.9388ZM28.9389 21.6856L28.777 21.6541L28.7666 21.708L28.7905 21.7574L28.9389 21.6856ZM29.2654 19.6265L29.4289 19.6475L29.4289 19.6475L29.2654 19.6265ZM29.6359 14.6191L29.8006 14.6236L29.8006 14.6236L29.6359 14.6191ZM29.5461 9.34789L29.7106 9.33752L29.7106 9.33752L29.5461 9.34789ZM29.0113 4.70991L29.1736 4.68051L29.1736 4.68051L29.0113 4.70991ZM28.959 4.42941L28.8138 4.35123L28.786 4.4029L28.7971 4.46054L28.959 4.42941ZM29.2849 3.97239L29.3997 4.09066L29.3997 4.09066L29.2849 3.97239ZM29.5626 3.74672L29.6621 3.87816L29.6633 3.87725L29.5626 3.74672ZM29.5627 3.74664L29.6634 3.87722L29.6666 3.87458L29.5627 3.74664ZM29.5627 3.74663L29.4632 3.61511L29.4588 3.61869L29.5627 3.74663ZM30.142 3.06725L30.3066 3.07478L30.3066 3.07478L30.142 3.06725ZM33.5115 0.491821C33.568 0.48982 33.656 0.522249 33.7741 0.66108C33.8901 0.797303 34.0135 1.01185 34.1395 1.30987C34.3908 1.90419 34.6369 2.79284 34.8607 3.94636L35.1843 3.88357C34.9589 2.72132 34.7075 1.80678 34.4432 1.18148C34.3114 0.869685 34.1724 0.620314 34.0252 0.44738C33.8802 0.277054 33.7043 0.155091 33.4998 0.162332L33.5115 0.491821ZM33.8317 5.00661L33.6704 0.321404L33.3409 0.332749L33.5022 5.01795L33.8317 5.00661ZM34.7734 7.21511C34.6326 6.48971 34.4752 5.91533 34.3081 5.52011C34.2249 5.32335 34.1354 5.1615 34.0379 5.04688C33.9425 4.93488 33.8164 4.84204 33.6611 4.84754L33.6728 5.17703C33.6801 5.17677 33.7183 5.18007 33.7868 5.26058C33.8531 5.33849 33.927 5.46552 34.0044 5.64849C34.1584 6.01274 34.3107 6.56123 34.4497 7.2779L34.7734 7.21511ZM35.3235 12.6961C35.2527 10.6397 35.0553 8.66824 34.7734 7.21511L34.4497 7.2779C34.7273 8.70889 34.9236 10.6621 34.994 12.7074L35.3235 12.6961ZM35.3385 13.2105C35.3345 13.0397 35.3295 12.8682 35.3235 12.6961L34.994 12.7074C34.9999 12.8784 35.0049 13.0488 35.0089 13.2184L35.3385 13.2105ZM35.073 13.4147C35.1209 13.4004 35.1689 13.3866 35.2172 13.3735L35.1303 13.0554C35.0796 13.0693 35.0289 13.0837 34.9785 13.0988L35.073 13.4147ZM35.3397 13.6784L35.1822 13.2047L34.8693 13.3088L35.0269 13.7825L35.3397 13.6784ZM35.1517 18.2026C35.3025 16.9806 35.3702 15.4056 35.3481 13.7283L35.0185 13.7326C35.0404 15.4003 34.9729 16.9595 34.8245 18.1623L35.1517 18.2026ZM34.2053 20.6428C34.3605 20.6373 34.4799 20.5359 34.5672 20.4175C34.6566 20.2963 34.7347 20.1285 34.8041 19.9264C34.9436 19.5203 35.0612 18.9362 35.1517 18.2026L34.8245 18.1623C34.7351 18.887 34.6209 19.445 34.4923 19.8193C34.4277 20.0073 34.3627 20.1393 34.3019 20.2217C34.239 20.307 34.201 20.3131 34.1937 20.3133L34.2053 20.6428ZM34.5256 25.1576L34.3643 20.4724L34.0348 20.4837L34.1961 25.1689L34.5256 25.1576ZM35.4636 21.4566C35.3197 22.6232 35.1353 23.5271 34.9255 24.1378C34.8203 24.444 34.712 24.6668 34.6056 24.8109C34.4972 24.9579 34.4116 24.9965 34.355 24.9985L34.3667 25.328C34.5711 25.3208 34.7381 25.1867 34.871 25.0067C35.0059 24.8238 35.1273 24.5652 35.2373 24.2449C35.458 23.6024 35.6458 22.6724 35.7908 21.497L35.4636 21.4566ZM35.7768 14.4031C35.8091 17.0565 35.7004 19.537 35.4636 21.4566L35.7908 21.497C36.03 19.5582 36.1389 17.062 36.1065 14.3991L35.7768 14.4031ZM39.2338 14.5124C38.1247 14.117 36.9845 14.0236 35.9092 14.2395L35.9741 14.5627C36.9865 14.3595 38.0661 14.4461 39.1231 14.823L39.2338 14.5124ZM42.683 16.952C41.7128 15.8167 40.5194 14.9707 39.2338 14.5124L39.1231 14.823C40.349 15.26 41.4957 16.0701 42.4323 17.1662L42.683 16.952ZM44.7361 20.9442C44.3637 19.4695 43.6531 18.0873 42.683 16.952L42.4323 17.1662C43.3688 18.2621 44.0562 19.5984 44.4164 21.0249L44.7361 20.9442ZM44.7918 25.3113C45.1288 23.9308 45.1085 22.4188 44.7361 20.9442L44.4164 21.0249C44.7767 22.4514 44.7948 23.9087 44.4716 25.2331L44.7918 25.3113ZM45.7965 25.6305L44.701 25.1227L44.5624 25.4218L45.6578 25.9296L45.7965 25.6305ZM45.5027 20.8245C45.9234 22.4906 45.9447 24.1931 45.567 25.7409L45.8873 25.8191C46.2787 24.2152 46.2553 22.458 45.8224 20.7437L45.5027 20.8245ZM43.1851 16.3173C44.2791 17.5976 45.082 19.1584 45.5027 20.8245L45.8224 20.7437C45.3895 19.0295 44.5634 17.4228 43.4358 16.1031L43.1851 16.3173ZM39.3177 13.5791C40.7511 14.0901 42.0911 15.037 43.1851 16.3173L43.4358 16.1031C42.3082 14.7836 40.9214 13.8008 39.4284 13.2686L39.3177 13.5791ZM35.9381 13.2215C37.0336 13.0567 38.1869 13.176 39.3177 13.5791L39.4284 13.2686C38.25 12.8485 37.0419 12.7221 35.889 12.8955L35.9381 13.2215ZM35.7424 12.8573L35.7488 13.0636L36.0783 13.0534L36.072 12.8471L35.7424 12.8573ZM40.0096 11.2099C38.7014 12.0094 37.2806 12.5174 35.8871 12.6886L35.9273 13.0158C37.3713 12.8385 38.8366 12.3132 40.1815 11.4912L40.0096 11.2099ZM43.4912 7.91198C42.6012 9.22087 41.3968 10.3621 40.0096 11.2099L40.1815 11.4912C41.6077 10.6196 42.8468 9.44605 43.7638 8.09736L43.4912 7.91198ZM45.0552 3.79914C44.9206 5.17971 44.3813 6.60294 43.4912 7.91198L43.7638 8.09736C44.6808 6.74881 45.2427 5.27364 45.3834 3.83114L45.0552 3.79914ZM44.2677 0.0865113C44.9149 1.13628 45.1898 2.41915 45.0552 3.79914L45.3834 3.83113C45.5241 2.38804 45.2377 1.03154 44.5484 -0.0865113L44.2677 0.0865113ZM43.5491 0.787836L44.5012 0.136026L44.3149 -0.136026L43.3628 0.515784L43.5491 0.787836ZM44.3276 3.99562C44.4508 2.73283 44.2002 1.54489 43.5963 0.565299L43.3156 0.738321C43.8775 1.64963 44.1165 2.76394 43.9995 3.96362L44.3276 3.99562ZM42.9114 7.72671C43.713 6.54789 44.2045 5.25783 44.3276 3.99562L43.9995 3.96362C43.8824 5.1639 43.4135 6.40202 42.6388 7.54132L42.9114 7.72671ZM39.7803 10.6932C41.0268 9.93137 42.1098 8.90567 42.9114 7.72671L42.6388 7.54132C41.8642 8.68049 40.8159 9.67385 39.6083 10.4119L39.7803 10.6932ZM35.8864 12.0455C37.2056 11.9127 38.5507 11.4446 39.7803 10.6932L39.6083 10.4119C38.417 11.1399 37.119 11.59 35.8534 11.7174L35.8864 12.0455ZM34.8607 3.94636C35.2717 6.06494 35.5716 8.89143 35.7052 11.8888L36.0346 11.8741C35.9005 8.86642 35.5994 6.02287 35.1843 3.88357L34.8607 3.94636ZM16.333 21.0946C16.349 21.0588 16.3649 21.0229 16.3807 20.9867L16.0786 20.8547C16.0632 20.8899 16.0477 20.925 16.0321 20.9598L16.333 21.0946ZM15.9639 20.9422L16.0321 21.0945L16.333 20.9598L16.2648 20.8075L15.9639 20.9422ZM12.2904 20.3434C13.6202 20.3434 14.9135 20.5836 16.0544 21.0285L16.1742 20.7213C14.993 20.2607 13.6589 20.0137 12.2904 20.0137V20.3434ZM8.57046 21.0114C9.70062 20.5774 10.9777 20.3434 12.2904 20.3434V20.0137C10.9395 20.0137 9.62211 20.2544 8.45227 20.7036L8.57046 21.0114ZM8.58583 21.0945L8.66182 20.9249L8.36091 20.7901L8.28492 20.9598L8.58583 21.0945ZM8.2316 20.9738C8.24924 21.0143 8.26701 21.0546 8.28492 21.0945L8.58582 20.9598C8.56837 20.9208 8.55105 20.8816 8.53385 20.8421L8.2316 20.9738ZM6.77903 21.9581C7.27756 21.6049 7.8383 21.304 8.4441 21.061L8.32135 20.755C7.69372 21.0068 7.10988 21.3197 6.58846 21.689L6.77903 21.9581ZM4.52625 25.7948C4.52625 24.3709 5.32469 22.9882 6.77903 21.9581L6.58846 21.689C5.06886 22.7654 4.19655 24.2396 4.19655 25.7948L4.52625 25.7948ZM1 25.9596L4.3614 25.9596L4.3614 25.6299L1 25.6299L1 25.9596ZM4.21159 20.0054C2.06161 21.5283 0.835152 23.6081 0.835152 25.7948H1.16485C1.16485 23.7395 2.31743 21.7511 4.40216 20.2745L4.21159 20.0054ZM7.52289 18.3721C6.30505 18.7687 5.18147 19.3185 4.21159 20.0055L4.40216 20.2745C5.34208 19.6087 6.43517 19.0731 7.62498 18.6856L7.52289 18.3721ZM6.77195 14.7785C6.89135 16.1189 7.10927 17.3992 7.41441 18.5704L7.73346 18.4873C7.43333 17.3354 7.21828 16.0732 7.10034 14.7493L6.77195 14.7785ZM7.0858 7.66614C6.66831 9.91678 6.55931 12.3914 6.77195 14.7785L7.10034 14.7493C6.89024 12.3906 6.9982 9.94606 7.40996 7.72627L7.0858 7.66614ZM9.12856 2.1146C8.21123 3.48331 7.50297 5.41716 7.0858 7.66614L7.40996 7.72627C7.82203 5.50481 8.51805 3.61772 9.40244 2.29816L9.12856 2.1146ZM12.3089 -0.0200307C11.1469 -0.0200307 10.044 0.748681 9.12856 2.1146L9.40244 2.29816C10.2887 0.975813 11.304 0.309666 12.3089 0.309666V-0.0200307ZM15.4893 2.1146C14.5739 0.748681 13.471 -0.0200307 12.3089 -0.0200307V0.309666C13.3139 0.309666 14.3292 0.975813 15.2155 2.29816L15.4893 2.1146ZM17.5321 7.66614C17.1149 5.41716 16.4067 3.48331 15.4893 2.1146L15.2155 2.29816C16.0999 3.61772 16.7959 5.50481 17.2079 7.72627L17.5321 7.66614ZM17.846 14.7785C18.0586 12.3914 17.9496 9.91678 17.5321 7.66614L17.2079 7.72627C17.6197 9.94606 17.7277 12.3906 17.5176 14.7493L17.846 14.7785ZM17.2005 18.5817C17.5072 17.4075 17.7262 16.1232 17.846 14.7785L17.5176 14.7493C17.3992 16.0774 17.1832 17.3435 16.8815 18.4984L17.2005 18.5817ZM20.3692 20.0054C19.4085 19.325 18.297 18.7792 17.0925 18.3835L16.9896 18.6967C18.1663 19.0833 19.2476 19.6151 20.1786 20.2745L20.3692 20.0054ZM23.7456 25.7948C23.7456 23.6081 22.5192 21.5283 20.3692 20.0054L20.1786 20.2745C22.2633 21.7511 23.4159 23.7395 23.4159 25.7948H23.7456ZM20.2194 25.9596H23.5808V25.6299H20.2194V25.9596ZM17.8017 21.9581C19.2561 22.9882 20.0545 24.3709 20.0545 25.7948H20.3842C20.3842 24.2396 19.5119 22.7654 17.9923 21.689L17.8017 21.9581ZM16.1677 21.0735C16.7616 21.3143 17.3117 21.611 17.8017 21.9581L17.9923 21.689C17.4798 21.326 16.907 21.0175 16.2916 20.7679L16.1677 21.0735ZM16.0245 14.0861C15.8941 15.5505 15.5989 16.9082 15.1713 18.0335L15.4795 18.1506C15.9197 16.992 16.2203 15.6039 16.3529 14.1153L16.0245 14.0861ZM15.8015 9.02711C16.0981 10.6258 16.1759 12.3868 16.0245 14.0861L16.3529 14.1153C16.5068 12.3876 16.428 10.5965 16.1257 8.96698L15.8015 9.02711ZM14.3697 5.12454C15.0038 6.07059 15.5047 7.42679 15.8015 9.02711L16.1257 8.96698C15.8238 7.33914 15.3106 5.93618 14.6436 4.94098L14.3697 5.12454ZM12.3089 3.70892C13.0128 3.70892 13.7338 4.17571 14.3697 5.12454L14.6436 4.94098C13.9785 3.94857 13.1699 3.37923 12.3089 3.37923V3.70892ZM10.2482 5.12454C10.8841 4.17571 11.6051 3.70892 12.3089 3.70892V3.37923C11.448 3.37923 10.6394 3.94857 9.97429 4.94098L10.2482 5.12454ZM8.81636 9.02711C9.11321 7.42679 9.61411 6.07058 10.2482 5.12454L9.97429 4.94098C9.3073 5.93618 8.79415 7.33914 8.49219 8.96698L8.81636 9.02711ZM8.59337 14.0861C8.442 12.3868 8.51981 10.6258 8.81636 9.02711L8.49219 8.96698C8.18993 10.5965 8.11107 12.3876 8.26497 14.1153L8.59337 14.0861ZM9.44404 18.0268C9.01787 16.9028 8.72355 15.5476 8.59337 14.0861L8.26497 14.1153C8.39731 15.601 8.69701 16.9865 9.13576 18.1437L9.44404 18.0268ZM12.2904 17.6328C11.257 17.6328 10.2379 17.7321 9.2583 17.9234L9.32149 18.247C10.28 18.0598 11.278 17.9625 12.2904 17.9625V17.6328ZM15.3574 17.9303C14.3671 17.7345 13.336 17.6328 12.2904 17.6328V17.9625C13.3148 17.9625 14.3245 18.0622 15.2935 18.2537L15.3574 17.9303ZM29.7605 0.418107C29.8658 0.437339 29.9433 0.507534 29.9974 0.628288C30.0531 0.752368 30.0754 0.914879 30.0682 1.07204L30.3976 1.0871C30.4063 0.895678 30.3811 0.678119 30.2983 0.493403C30.214 0.30536 30.0621 0.13803 29.8197 0.0937729L29.7605 0.418107ZM29.2478 0.629415C29.4404 0.442421 29.6099 0.390611 29.7605 0.418107L29.8197 0.0937729C29.5306 0.0409838 29.2588 0.159247 29.0182 0.392872L29.2478 0.629415ZM28.4711 2.03368C28.7218 1.34984 28.9871 0.882519 29.2478 0.629414L29.0181 0.392873C28.7033 0.698558 28.4172 1.22271 28.1615 1.92018L28.4711 2.03368ZM27.972 1.56114C28.0363 1.7061 28.0995 1.86365 28.1614 2.03341L28.4712 1.92045C28.407 1.74459 28.3411 1.58003 28.2733 1.4274L27.972 1.56114ZM27.1827 1.95784C27.1859 1.53884 27.3563 1.29392 27.5043 1.22548C27.5722 1.19407 27.6429 1.19401 27.7165 1.23447C27.7952 1.27769 27.8893 1.37481 27.972 1.56114L28.2733 1.4274C28.1723 1.19968 28.0373 1.03455 27.8754 0.945555C27.7085 0.85381 27.5273 0.851568 27.3659 0.92624C27.0551 1.06997 26.8568 1.47025 26.853 1.95527L27.1827 1.95784ZM27.1781 2.54432L27.1827 1.95784L26.853 1.95526L26.8484 2.54174L27.1781 2.54432ZM27.7124 4.13141C27.4413 3.58517 27.1742 3.03868 27.1781 2.54432L26.8484 2.54175C26.8438 3.13083 27.1568 3.75347 27.417 4.27796L27.7124 4.13141ZM27.7133 4.13337L27.7128 4.13225L27.4166 4.27712L27.4172 4.27825L27.7133 4.13337ZM27.8194 4.34846C27.7847 4.27724 27.7489 4.205 27.7129 4.13253L27.4176 4.27909C27.4537 4.35176 27.4889 4.42284 27.5229 4.49268L27.8194 4.34846ZM27.5036 6.54007C27.5984 5.79032 27.7088 5.091 27.833 4.45201L27.5093 4.38913C27.3836 5.03622 27.272 5.74281 27.1765 6.49874L27.5036 6.54007ZM27.1419 11.5317C27.1875 9.76654 27.3107 8.06646 27.5036 6.54007L27.1765 6.49874C26.9821 8.03745 26.8581 9.74861 26.8123 11.5232L27.1419 11.5317ZM27.2393 16.7878C27.1295 15.087 27.0963 13.2967 27.1419 11.5317L26.8123 11.5232C26.7665 13.2978 26.7998 15.098 26.9103 16.8091L27.2393 16.7878ZM27.7786 21.406C27.5329 20.0617 27.349 18.4889 27.2393 16.7878L26.9103 16.8091C27.0207 18.52 27.2058 20.1058 27.4543 21.4653L27.7786 21.406ZM27.824 21.6479C27.8086 21.5682 27.7935 21.4876 27.7786 21.406L27.4543 21.4653C27.4694 21.5479 27.4847 21.6295 27.5002 21.7102L27.824 21.6479ZM27.4314 22.2892C27.5667 22.1582 27.6919 21.9769 27.808 21.7557L27.5161 21.6024C27.4094 21.8058 27.3034 21.9542 27.2021 22.0523L27.4314 22.2892ZM27.1379 22.5276C27.2412 22.4497 27.3502 22.3678 27.4314 22.2892L27.2021 22.0523C27.1386 22.1137 27.0481 22.1824 26.9393 22.2645L27.1379 22.5276ZM26.623 23.0824C26.6259 23.0201 26.6684 22.9378 26.7717 22.8317C26.8718 22.729 27.0031 22.6294 27.1379 22.5276L26.9393 22.2645C26.8093 22.3626 26.6564 22.4775 26.5355 22.6017C26.4178 22.7225 26.3025 22.8796 26.2937 23.0668L26.623 23.0824ZM26.5291 25.0699L26.623 23.0824L26.2937 23.0668L26.1998 25.0544L26.5291 25.0699ZM26.8358 25.7243C26.7306 25.7049 26.6532 25.6346 26.5992 25.5138C26.5438 25.3896 26.5217 25.2271 26.5291 25.0699L26.1998 25.0544C26.1907 25.2458 26.2156 25.4634 26.2982 25.6482C26.3822 25.8364 26.5338 26.0039 26.7762 26.0486L26.8358 25.7243ZM27.3488 25.5137C27.156 25.7005 26.9864 25.752 26.8359 25.7243L26.7762 26.0486C27.0652 26.1018 27.3372 25.9839 27.5782 25.7506L27.3488 25.5137ZM28.144 24.0659C27.8876 24.7733 27.6157 25.2553 27.3488 25.5137L27.5782 25.7506C27.9002 25.4389 28.1928 24.8989 28.454 24.1782L28.144 24.0659ZM28.6605 24.5829C28.5903 24.4254 28.5214 24.2529 28.4541 24.0661L28.1439 24.1779C28.2136 24.3712 28.2855 24.5512 28.3594 24.7171L28.6605 24.5829ZM29.4492 24.1851C29.4466 24.6041 29.2766 24.8492 29.1288 24.9179C29.0609 24.9494 28.9901 24.9496 28.9164 24.9092C28.8378 24.8661 28.7435 24.7691 28.6605 24.5829L28.3594 24.7171C28.4608 24.9447 28.596 25.1096 28.758 25.1983C28.9251 25.2898 29.1062 25.2918 29.2676 25.2169C29.5782 25.0727 29.7759 24.6722 29.7789 24.1871L29.4492 24.1851ZM29.453 23.5986L29.4492 24.1851L29.7789 24.1871L29.7826 23.6007L29.453 23.5986ZM28.9163 22.0123C29.1881 22.5581 29.4561 23.1042 29.453 23.5986L29.7826 23.6007C29.7864 23.0116 29.4724 22.3894 29.2114 21.8653L28.9163 22.0123ZM28.9164 22.0125L28.9164 22.0125L29.2113 21.8651L29.2113 21.865L28.9164 22.0125ZM28.7905 21.7574C28.8311 21.8413 28.8736 21.9266 28.9163 22.0123L29.2114 21.8653C29.1686 21.7793 29.1269 21.6956 29.0872 21.6137L28.7905 21.7574ZM29.1019 19.6056C29.008 20.34 28.899 21.0259 28.777 21.6541L29.1007 21.717C29.2242 21.0809 29.3342 20.3879 29.4289 19.6475L29.1019 19.6056ZM29.4711 14.6146C29.4229 16.3796 29.2971 18.0795 29.1019 19.6056L29.4289 19.6475C29.6257 18.109 29.7522 16.3981 29.8006 14.6236L29.4711 14.6146ZM29.3816 9.35826C29.4888 11.0593 29.5193 12.8496 29.4711 14.6146L29.8006 14.6236C29.8491 12.849 29.8185 11.0488 29.7106 9.33752L29.3816 9.35826ZM28.8491 4.73931C29.0929 6.08395 29.2743 7.65702 29.3816 9.35826L29.7106 9.33752C29.6028 7.62645 29.42 6.04033 29.1736 4.68051L28.8491 4.73931ZM28.7971 4.46054C28.8147 4.55217 28.8321 4.6451 28.8491 4.73931L29.1736 4.68051C29.1563 4.58517 29.1387 4.49109 29.1209 4.39828L28.7971 4.46054ZM29.1701 3.85412C29.0424 3.97806 28.924 4.14673 28.8138 4.35123L29.1041 4.50759C29.2047 4.32087 29.3043 4.18328 29.3997 4.09066L29.1701 3.85412ZM29.4631 3.61528C29.36 3.69333 29.2511 3.77541 29.1701 3.85412L29.3997 4.09066C29.4631 4.02913 29.5535 3.96036 29.6621 3.87815L29.4631 3.61528ZM29.462 3.6161L29.4619 3.61618L29.6633 3.87725L29.6634 3.87717L29.462 3.6161ZM29.4588 3.61869L29.4587 3.6187L29.6666 3.87458L29.6667 3.87457L29.4588 3.61869ZM29.9773 3.05971C29.9744 3.12198 29.9321 3.20436 29.829 3.31059C29.7291 3.41349 29.5979 3.51326 29.4632 3.61519L29.6622 3.87807C29.7921 3.77976 29.9448 3.6646 30.0655 3.54026C30.183 3.41924 30.2981 3.26205 30.3066 3.07478L29.9773 3.05971ZM30.0682 1.07204L29.9773 3.05972L30.3066 3.07478L30.3976 1.0871L30.0682 1.07204Z" fill="black" mask="url(#path-1-inside-1)"/>
</g>
<defs>
<filter id="filter0_d" x="0.340607" y="0" width="46.3188" height="27.215" filterUnits="userSpaceOnUse" color-interpolation-filters="sRGB">
<feFlood flood-opacity="0" result="BackgroundImageFix"/>
<feColorMatrix in="SourceAlpha" type="matrix" values="0 0 0 0 0 0 0 0 0 0 0 0 0 0 0 0 0 0 127 0"/>
<feOffset dy="0.659393"/>
<feGaussianBlur stdDeviation="0.329696"/>
<feColorMatrix type="matrix" values="0 0 0 0 0 0 0 0 0 0 0 0 0 0 0 0 0 0 0.25 0"/>
<feBlend mode="normal" in2="BackgroundImageFix" result="effect1_dropShadow"/>
<feBlend mode="normal" in="SourceGraphic" in2="effect1_dropShadow" result="shape"/>
</filter>
</defs>
</svg>
